<?xml version="1.0" encoding="UTF-8"?>
<svg id="Layer_2" data-name="Layer 2" xmlns="http://www.w3.org/2000/svg" viewBox="0 0 1408 768">
  <defs>
    <style>
      .cls-1 {
        fill: #e94d44;
      }

      .cls-2 {
        fill: #156a6f;
      }

      .cls-3 {
        fill: #7ac57d;
      }

      .cls-4 {
        fill: #f39384;
      }

      .cls-5 {
        fill: #2cacab;
      }

      .cls-6 {
        fill: #f9dc43;
      }

      .cls-7 {
        fill: #ed6459;
      }

      .cls-8 {
        fill: #cc322e;
      }

      .cls-9 {
        fill: #f6dd4a;
      }

      .cls-10 {
        fill: #2f9357;
      }

      .cls-11 {
        fill: #f3ad35;
      }

      .cls-12 {
        fill: #208c8f;
      }

      .cls-13 {
        fill: #46b774;
      }

      .cls-14 {
        fill: #f6ce40;
      }
    </style>
  </defs>
  <g id="Layer_1-2" data-name="Layer 1">
    <g>
      <path class="cls-6" d="M1408,328v440h-190l34.42-60.08c5.65-20.51,16.07-39.14,21.09-59.91,11.58-47.99,6.5-98.94-28.5-136,33.36,78.16,12.84,142.19-45.01,198.99,9.47-19.5,21.59-37.65,28.51-58.99,18.08-55.7,17.79-139.07-31.54-178.75-2.39-8.9,33.45-59.52,41.44-68.9,33.33-39.13,92.65-72.1,143.04-76.45,8.44-.73,17.98.69,26.55.07ZM1244.5,510v1l.5-.5-.5-.5Z"/>
      <path class="cls-4" d="M1193,472c64.24,36.73,44.31,163.45,15,218-29.63,34.78-69.4,58.11-110,78h-159c-8.57-42.65-37.76-84.03-77-103,43.91-20.23,85.46-45.33,125.38-73.17,9.85,22.62,33.68,35.78,58.07,32.08,24.39-3.7,43.24-23.35,45.93-47.87.4-3.65.43-7.34.09-10.99-.16-1.68-.39-3.35-.7-5.01-.19-1.03-.42-2.05-.67-3.07-.08-.31-.16-.63-.24-.94s-.17-.62-.26-.92c-.11-.4-.23-.8-.36-1.19-3.88-12.46-12.11-23.12-23.19-30.02,28.97-27.14,84.52-76.15,126.94-51.9Z"/>
      <path class="cls-7" d="M124,519c72.1,61.84,112.75,141.38,203.33,182.17,48.04,21.64,67.07,20.21,117.67,19.83,13.42-.1,33.08,6.94,48.52,7.98,15.45,1.04,31.21-1.34,46.48-.98,8.07.19,15.98,0,24,0,37.68,0,61.07.64,98.45-4.07,3.98-.5,8.98.49,13.11.15l77.45-18.07c32.32-9.69,63.28-22.54,94-36,3.56-1.56,10.19-2.79,15-5,39.24,18.97,68.43,60.35,77,103H268c-83.4-59.69-124.91-150.31-144-249Z"/>
      <path class="cls-11" d="M1218,768h-71c13.4-14.65,28.08-28,40-44,5.76-2.32,9.3-9.36,13-13,57.84-56.81,78.37-120.83,45.01-198.99,35,37.06,40.08,88.01,28.5,136-5.01,20.78-15.44,39.4-21.09,59.91l-34.42,60.08Z"/>
      <path class="cls-7" d="M1187,724c-11.92,16-26.6,29.35-40,44h-49c40.6-19.89,80.37-43.22,110-78-6.32,11.76-13.04,23.31-21,34Z"/>
      <path class="cls-9" d="M1408,324v4c-8.57.61-18.12-.8-26.55-.07-50.39,4.34-109.71,37.31-143.04,76.45-7.99,9.38-43.83,59.99-41.44,68.9,49.33,39.67,49.62,123.05,31.54,178.75-6.93,21.33-19.04,39.48-28.51,58.99-3.7,3.64-7.24,10.68-13,13,7.96-10.69,14.68-22.24,21-34,29.31-54.55,49.24-181.27-15-218,36.65-84.98,119.49-150,215-148Z"/>
      <path class="cls-7" d="M1161.04,402.96c-4.77,6.75-6.21,11.91-13.13,17.45-8.55,6.84-15.9,7.42-26.92,11.11-5.64-10.98-2.37-24.43,7.68-31.59,10.05-7.16,23.83-5.87,32.37,3.03Z"/>
      <path class="cls-8" d="M1161.04,402.96c6.75,7.03,8.76,17.36,5.15,26.41-3.61,9.05-12.18,15.16-21.91,15.62s-18.84-4.81-23.29-13.48c11.02-3.68,18.37-4.27,26.92-11.11,6.92-5.54,8.37-10.7,13.13-17.45Z"/>
      <path class="cls-4" d="M1064.58,523.01l-1.63-.91c.55.29,1.09.6,1.63.91Z"/>
      <polygon class="cls-11" points="1244.5 510 1245 510.5 1244.5 511 1244.5 510"/>
      <g>
        <path class="cls-6" d="M1062.95,522.1l1.63.91c.5.29,1,.59,1.49.89,11.08,6.9,19.31,17.56,23.19,30.02l.36,1.19c.09.31.17.62.26.92l.24.94c.25,1.02.48,2.04.67,3.07l.7,5.01c.34,3.66.31,7.34-.09,10.99-.9,6.04-13.83,8.54-19.19,9.65-33.7,6.94-63.37-5.54-87.99-27.65,3.76-16.56,15.03-30.41,30.48-37.46,15.45-7.05,33.3-6.49,48.27,1.52Z"/>
        <path class="cls-11" d="M984.2,558.05c24.62,22.11,54.29,34.58,87.99,27.65,5.37-1.1,18.29-3.6,19.19-9.65-2.69,24.52-21.54,44.16-45.93,47.87-24.39,3.7-48.22-9.46-58.07-32.08-4.63-10.64-5.75-22.48-3.18-33.79Z"/>
        <path class="cls-11" d="M1091.48,565.05l-.7-5.01c.31,1.66.55,3.33.7,5.01Z"/>
        <path class="cls-11" d="M1089.61,555.11l-.36-1.19c.12.4.24.79.36,1.19Z"/>
      </g>
      <path class="cls-11" d="M1090.1,556.97l-.24-.94c.08.31.16.62.24.94Z"/>
      <path class="cls-1" d="M114,421c-.02,3.92,1.21,12.34,2.94,15.56,4.37,8.12,38.57,38.63,47.57,48.43,65.29,71.13,125.75,151.92,207.82,204.18l72.67,31.83c-50.6.38-69.63,1.81-117.67-19.83-90.58-40.79-131.23-120.33-203.33-182.17-6.26-32.38-11.21-65.96-11-99,.41.22.7.84,1,1Z"/>
      <path class="cls-8" d="M141,435c-.7,2.6,4.74,5.54,6.44,6.59,91.8,56.8,108.83,105.46,175.95,180.04,55.12,61.23,134.39,98.58,216.61,106.38-15.27-.36-31.03,2.02-46.48.98-15.44-1.04-35.11-8.08-48.52-7.98l-72.67-31.83c-82.08-52.25-142.54-133.05-207.82-204.18-8.99-9.8-43.2-40.31-47.57-48.43-1.73-3.21-2.96-11.64-2.94-15.56,8.82,4.72,18.09,9.4,27,14Z"/>
      <g>
        <path class="cls-9" d="M628,0c11.15,21.01,19.87,42.45,21.98,66.52,13.1,149.47-167.96,229.4-137.48,380.48,12.89,63.9,69.88,107.05,108.5,155,6,7.33,12,14.67,18,22-17.03,8.88-44.6,19.63-75.98,14.66-74.32-11.77-109.23-102.03-122.35-135.94-36.01-93.09-14.9-180.15-2.67-218.71,7.35-132.61-28.11-169.27-155-189,5.99-7.35,15.48-11.38,22.38-18.12C324.36,58.36,339.55,26.29,343,0h285Z"/>
        <path class="cls-5" d="M0,224c15.02,3.15,29.64,8.6,44.61,11.89,120.56,26.48,195.86,4.51,265.56,127.44,46.05,81.23,70.86,177.56,131.84,250.66,17.79,30.29,66.62,65.21,99.73,75.96l13.28,2.05-1.01,1.98,9.01.02-1.01,1.98,35.01,4.02-1.01,1.98c19.14-1.34,37.64,2.33,56.63,2.09,2.52-.03,8.68-2.05,14.38-2.08,25.5-.16,50.86-1.91,76.37.13,1.67.13,9.91.84,9.63,3.87l-77.45,18.07c-4.13.34-9.13-.65-13.11-.15-37.38,4.71-60.76,4.07-98.45,4.07-16.13-2.55-32.4-6.3-48-11l-49.9-27.6c-85.77-56.54-99.02-165.9-167.59-237.41C219.07,369.15,97.34,366.19,0,315v-91Z"/>
        <path class="cls-11" d="M110,0c25.06,82.13,102.64,84.06,173,95,126.89,19.73,162.35,56.39,155,189-2.17,39.17-9.48,78.36-6,118l-29.13-111.37c-30.45-69.97-94.22-87.85-157.87-116.63-40.65-18.38-80.15-33.62-119.12-56.14C80.92,91.88,40.2,60.46,0,28V0h110Z"/>
        <path class="cls-13" d="M0,28c40.2,32.46,80.92,63.88,125.88,89.86,38.97,22.52,78.48,37.77,119.12,56.14,61.66,54.21,97.38,131,119,209-7.14-14.13-26.14-39.43-36.97-51.53C245.88,240.9,108.32,234.45,0,196V28Z"/>
        <path class="cls-12" d="M0,315c97.34,51.19,219.07,54.15,298.51,136.99,68.57,71.51,81.82,180.87,167.59,237.41l49.9,27.6c-153.09-46.1-174.64-176.68-299.98-246.52-24.24-13.51-50.5-22.83-75.02-35.48-8.91-4.6-18.18-9.28-27-14-.3-.16-.59-.78-1-1-38.79-20.87-76.48-44.45-113-69v-36Z"/>
        <path class="cls-14" d="M343,0c-3.45,26.29-18.64,58.36-37.62,76.88-6.9,6.74-16.39,10.77-22.38,18.12C212.64,84.06,135.06,82.13,110,0h233Z"/>
        <path class="cls-10" d="M364,383c.37.72.5,1.96,1,3,33.25,69.16,36.05,158.28,77,228-60.97-73.1-85.79-169.43-131.84-250.66-69.69-122.94-145-100.96-265.56-127.44-14.97-3.29-29.59-8.75-44.61-11.89v-28c108.32,38.45,245.88,44.9,327.03,135.47,10.84,12.1,29.83,37.4,36.97,51.53Z"/>
        <path class="cls-3" d="M639,624c32.68-5.75,62.68-13.13,96.48-10.98,42.1,2.68,86.2,22.81,111.52,56.98-30.72,13.46-61.68,26.31-94,36,.28-3.03-7.96-3.73-9.63-3.87-25.5-2.05-50.87-.29-76.37-.13-41.82-12.67-82.42-30.78-115.01-60.49-9.26-8.44-16.31-18.77-24.99-27.51,7.69,3.54,17.84,11.59,25.72,13.96,5.86,1.76,14.35.82,18.73,4.11,26.15,2.44,44.06-3.94,67.55-8.07Z"/>
        <path class="cls-13" d="M435,422c.82,4,1.96,8.05,3,12v1c.07.64-.11,1.38,0,2,.1.58.8,1.34,1,2,.03.66-.02,1.33,0,2,.03,1.13-.24,2.4,1,3,.03.33-.05.68,0,1,9.79,66.2,41.29,123.01,87,169,8.69,8.74,15.73,19.07,24.99,27.51,32.59,29.72,73.19,47.82,115.01,60.49-5.7.04-11.86,2.05-14.38,2.08-18.99.24-37.49-3.43-56.63-2.09l1.01-1.98-35.01-4.02,1.01-1.98-9.01-.02,1.01-1.98-13.28-2.05c-33.11-10.75-81.94-45.67-99.73-75.96-40.95-69.72-43.75-158.84-77-228l70,36Z"/>
        <path class="cls-2" d="M516,717c15.6,4.7,31.87,8.45,48,11-8.02,0-15.93.19-24,0-82.22-7.8-161.5-45.15-216.61-106.38-67.12-74.57-84.15-123.23-175.95-180.04-1.7-1.05-7.14-3.98-6.44-6.59,24.52,12.65,50.78,21.97,75.02,35.48,125.34,69.84,146.89,200.41,299.98,246.52Z"/>
        <path class="cls-13" d="M245,174c63.65,28.78,127.43,46.66,157.87,116.63l29.13,111.37v2l1,2c.15,1.64-.19,3.37,0,5,0,.05-.15,0,0,1,.45,3.1,1.36,6.84,2,10l-70-36c-.5-1.04-.63-2.28-1-3-21.62-78-57.34-154.79-119-209Z"/>
        <path class="cls-11" d="M433,406l-1-2,1,2Z"/>
        <path class="cls-11" d="M440,444c-1.24-.6-.97-1.87-1-3,1.31.63.88,1.9,1,3Z"/>
        <path class="cls-11" d="M438,435v-1c.07.26.69.45,0,1Z"/>
        <path class="cls-11" d="M433,412c-.15-1,0-.95,0-1v1Z"/>
        <path class="cls-11" d="M439,439c-.2-.66-.9-1.42-1-2,2.52.87.98,1.62,1,2Z"/>
      </g>
    </g>
  </g>
</svg>