<?xml version="1.0" encoding="UTF-8"?>
<svg id="Layer_2" data-name="Layer 2" xmlns="http://www.w3.org/2000/svg" viewBox="0 0 961.07 1261.98">
  <defs>
    <style>
      .cls-1 {
        fill: #24a69a;
      }

      .cls-2 {
        fill: #51bb7a;
      }

      .cls-3 {
        fill: #f58981;
      }

      .cls-4 {
        fill: #fff;
      }

      .cls-5 {
        fill: #faa629;
      }

      .cls-6 {
        fill: #f15c55;
      }

      .cls-7 {
        fill: #ffd54f;
      }
    </style>
  </defs>
  <g id="Yibrant_Logo_Word_Mark" data-name="Yibrant Logo Word Mark">
    <g id="Yibrant_Logo" data-name="Yibrant Logo">
      <g id="Right_Side" data-name="Right Side">
        <path id="Green" class="cls-2" d="M695.04,10.59c-25.75,11.32-43.41,31.33-75.02,74.18-19.26,26.11-43.04,59.96-68.82,100.84-13.07,18.73-26.14,37.46-39.22,56.2,8.79,13.7,19.55,33.28,27.91,58.3,1.31,3.92,9.05,27.48,12.11,56.28,5.38,50.56-5.84,96.46-16.8,137.06-36.64,135.75-47.28,126.89-52.74,182.5-1.3,13.21-1.14,51.92-.81,129.35.17,39.63.52,72.43.81,94.95,10.93-.01,43.65-1.5,67.86-25.63,13.37-13.33,18.53-27.98,23.25-41.85,9.73-28.6,8.9-50.88,8.01-88.77-.48-20.16-1.18-53.42-1.67-97.22-.63-17.72.53-46.41,12.03-79.25,11.71-33.44,29.13-56.89,40.83-70.37,36.28-49.37,74.16-99.49,113.71-150.2,35.91-46.04,71.67-90.63,107.17-133.77,14.49-19.37,30.21-49.42,27.56-90.83-.04-.6-.11-1.84-.26-3.32-4.29-43.23-32.59-87.72-78.23-108.15-3.36-1.5-54.76-23.55-107.67-.3h-.01Z"/>
        <path id="Blue" class="cls-1" d="M534.97,492.62c6.38-21.58,14.08-48.16,16.64-84.43,1.43-20.22,3.34-50.77-6.01-88.84-8.29-33.76-22.18-60.14-34.16-78.56,30.69-44.35,61.37-88.7,92.06-133.06,8.67-13.12,18.58-26.93,29.87-41.12,8.63-10.84,17.22-20.83,25.6-29.98-11.45,20.89-19.93,38.53-25.55,50.8-23.13,50.42-36.16,81.19-37.42,122.18-2.22,72.3,33.06,74.96,30.82,145.29-2.21,69.41-38.41,124.79-50.63,141.99-16.71,23.52-23.58,24.86-40.73,47.33-35.14,46.05-48.51,95.7-54.04,133.36,1.17-10.87,3.29-27.45,7.27-47.38,5.86-29.39,31.62-88.02,46.29-137.59h-.01Z"/>
      </g>
      <g id="Left_Top" data-name="Left Top">
        <path id="Yellow" class="cls-7" d="M270.28,10.59c25.75,11.32,43.41,31.33,75.02,74.18,19.26,26.11,43.04,59.96,68.82,100.84,13.07,18.73,26.14,37.46,39.22,56.2-14.43-5.96-77.22-29.99-149.71-3.15-62.49,23.13-93.93,69.91-103.17,84.92-29.59-36.79-59.18-73.58-88.77-110.38-6.68-8.86-32.14-44.73-27.3-94.15,4.67-47.62,35.63-89.08,78.23-108.15,3.36-1.5,54.76-23.55,107.67-.3h-.01Z"/>
        <path id="Orange" class="cls-5" d="M200.45,323.56c-29.59-36.79-59.18-73.58-88.77-110.38,31.04,23.55,58.71,28.92,73.23,30.44,32.54,3.39,59.47-6.3,92.78-18.28,32.17-11.57,36.38-18.02,65.1-27.05,29.34-9.23,54.7-11.87,71.33-12.68,13.07,18.73,26.14,37.46,39.22,56.2-9.15-3.58-26.48-9.66-49.28-12.88-6.53-.92-43.29-5.7-82.19,4.24-70.65,18.06-111.29,75.27-121.42,90.4h0Z"/>
      </g>
      <g id="Left_Side" data-name="Left Side">
        <path id="Red" class="cls-6" d="M482.45,900.24c-7.75-.25-50.35-2.29-74.08-32.65-11.96-15.31-17.94-36.29-19.85-43.91-2.64-10.54-3.41-19.09-3.78-24.48-2.99-43.52-.05-170.95.09-177.19-1.09-13.07-3.61-28.98-9.09-46.46-9.13-29.11-22.82-50.95-33.62-65.3-41.21-54.43-82.41-108.86-123.62-163.29,7.99-11.8,21.58-28.9,42.74-44.28,10.62-7.71,35.9-25.66,72-30.84,70.34-10.1,122.14,36.81,125.19,39.66,35.12,32.85,45.97,74.95,47.85,98,.53,6.52.99,19.48.24,34.33-.87,17.3-3.05,30.51-6.21,49.31-3.41,20.24-4.4,21.42-7.93,42.6-3.26,19.59-5.06,34.45-5.54,38.55-3.19,27.02-3.92,47.93-4.33,60.39-1.17,35.69-1.69,133.93-.07,265.57h.01Z"/>
        <path id="Pink" class="cls-3" d="M218.51,346.95c3.29-5.32,47.68-74.45,130.7-76.54,38.16-.96,69.93,15.1,75.89,18.16,9.79,5.02,30.53,15.92,48.91,38.53,24.81,30.51,29.76,63.22,31.92,78.76,4.01,28.9-.45,53.36-5.62,87.26-2.51,16.45-5.29,29.95-7.34,39.13-5.63,28-7.68,50.29-8.49,65.88-.28,5.45-.72,17.84-1.6,42.61-.47,13.35-.85,24.34-1.09,31.7-5.32-47.5-9.35-84.28-11.8-106.83-4.59-42.18-5.82-54.27-10.35-74.13-5.68-24.86-12.51-53.74-31.49-86.08-11.58-19.71-23.14-39.4-46.92-56.22-6.23-4.41-36.41-24.95-80.74-25.63-41.1-.63-70.71,16.18-81.98,23.39h0Z"/>
      </g>
    </g>
    <g>
      <path class="cls-4" d="M68.74,1258.82v-82.27L0,1064.95h31.95l30.66,53.5c8.39,14.67,14.84,26.46,21.62,39.98h.65c6.13-12.66,13.55-25.31,21.95-39.98l31.3-53.5h31.95l-72.94,111.32v82.55h-28.4Z"/>
      <path class="cls-4" d="M221.39,1080.48c.32,8.63-6.78,15.53-18.07,15.53-10,0-17.1-6.9-17.1-15.53s7.42-15.82,17.75-15.82,17.43,6.9,17.43,15.82h0ZM189.76,1258.82v-139.22h28.4v139.22h-28.4Z"/>
      <path class="cls-4" d="M263.99,1258.82c.65-9.49,1.29-23.59,1.29-35.96v-168.27h28.08v87.44h.65c10-15.53,28.08-25.6,53.25-25.6,38.73,0,66.16,28.76,65.84,71.05,0,49.76-35.18,74.5-70.03,74.5-22.59,0-40.66-7.77-52.28-26.18h-.97l-1.29,23.01h-24.54ZM293.36,1203.02c0,3.16.65,6.33,1.29,9.2,5.49,17.55,21.95,29.63,42.6,29.63,29.69,0,47.44-21.57,47.44-53.5,0-27.9-16.14-51.78-46.47-51.78-19.36,0-37.44,11.79-43.25,31.07-.65,2.88-1.61,6.33-1.61,10.35v25.03h0Z"/>
      <path class="cls-4" d="M448.91,1163.03c0-16.4-.32-30.49-1.29-43.43h24.85l.97,27.33h1.29c7.1-18.7,24.2-30.49,43.25-30.49,3.23,0,5.49.29,8.07.86v23.87c-2.9-.58-5.81-.86-9.68-.86-20.01,0-34.21,13.52-38.08,32.5-.65,3.45-1.29,7.48-1.29,11.79v74.21h-28.08v-95.79h0Z"/>
      <path class="cls-4" d="M639.32,1258.82l-2.26-17.55h-.97c-8.71,10.93-25.5,20.71-47.76,20.71-31.63,0-47.76-19.85-47.76-39.98,0-33.65,33.56-52.06,93.91-51.78v-2.88c0-11.51-3.55-32.22-35.5-32.22-14.52,0-29.69,4.03-40.66,10.36l-6.45-16.68c12.91-7.48,31.63-12.37,51.31-12.37,47.76,0,59.38,29.05,59.38,56.95v52.06c0,12.08.65,23.87,2.58,33.37h-25.82ZM635.12,1187.77c-30.98-.58-66.16,4.31-66.16,31.35,0,16.4,12.26,24.16,26.79,24.16,20.33,0,33.24-11.5,37.76-23.3.97-2.59,1.61-5.46,1.61-8.05v-24.16h0Z"/>
      <path class="cls-4" d="M708.38,1157.28c0-14.38-.32-26.18-1.29-37.68h25.17l1.61,23.01h.65c7.75-13.23,25.82-26.18,51.64-26.18,21.62,0,55.19,11.51,55.19,59.25v83.13h-28.4v-80.25c0-22.44-9.36-41.13-36.14-41.13-18.72,0-33.24,11.79-38.08,25.89-1.29,3.16-1.94,7.48-1.94,11.79v83.7h-28.4v-101.54h0Z"/>
      <path class="cls-4" d="M920.41,1079.62v39.98h40.66v19.27h-40.66v75.08c0,17.26,5.49,27.04,21.3,27.04,7.42,0,12.91-.86,16.46-1.73l1.29,18.98c-5.49,2.01-14.2,3.45-25.17,3.45-13.23,0-23.88-3.74-30.66-10.64-8.07-7.48-10.97-19.85-10.97-36.24v-75.94h-24.21v-19.27h24.21v-33.37l27.75-6.62h0Z"/>
    </g>
  </g>
</svg>